<svg width="56" height="56" viewBox="0 0 56 56" fill="none" xmlns="http://www.w3.org/2000/svg">
<path d="M17.9319 22.6138L11.3284 28.0002L17.9319 33.3867C18.1509 33.5624 18.3322 33.7788 18.4654 34.0234C18.5985 34.268 18.6809 34.536 18.7077 34.812C18.7345 35.0879 18.7053 35.3663 18.6216 35.6311C18.538 35.8959 18.4017 36.1419 18.2204 36.3549C18.0392 36.5679 17.8167 36.7436 17.5658 36.872C17.3148 37.0004 17.0404 37.0789 16.7583 37.1029C16.4762 37.127 16.1921 37.0961 15.9222 37.0121C15.6524 36.9282 15.4022 36.7927 15.1861 36.6136L6.60541 29.6137C6.36374 29.4166 6.1693 29.1699 6.03586 28.8911C5.90242 28.6123 5.83325 28.3081 5.83325 28.0002C5.83325 27.6923 5.90242 27.3882 6.03586 27.1093C6.1693 26.8305 6.36374 26.5838 6.60541 26.3867L15.1861 19.3868C15.6238 19.0357 16.1856 18.868 16.749 18.9205C17.3125 18.973 17.8319 19.2413 18.1941 19.667C18.5563 20.0927 18.732 20.6413 18.6829 21.1933C18.6338 21.7452 18.3639 22.2558 17.9319 22.6138ZM49.3944 26.3867L40.8137 19.3868C40.5976 19.2077 40.3475 19.0723 40.0776 18.9883C39.8078 18.9043 39.5236 18.8735 39.2415 18.8975C38.9594 18.9216 38.685 19.0001 38.4341 19.1284C38.1831 19.2568 37.9606 19.4326 37.7794 19.6455C37.5982 19.8585 37.4618 20.1045 37.3782 20.3693C37.2946 20.6342 37.2653 20.9126 37.2921 21.1885C37.319 21.4644 37.4013 21.7324 37.5345 21.9771C37.6676 22.2217 37.8489 22.4381 38.0679 22.6138L44.6715 28.0002L38.0679 33.3867C37.8489 33.5624 37.6676 33.7788 37.5345 34.0234C37.4013 34.268 37.319 34.536 37.2921 34.812C37.2653 35.0879 37.2946 35.3663 37.3782 35.6311C37.4618 35.8959 37.5982 36.1419 37.7794 36.3549C37.9606 36.5679 38.1831 36.7436 38.4341 36.872C38.685 37.0004 38.9594 37.0789 39.2415 37.1029C39.5236 37.127 39.8078 37.0961 40.0776 37.0121C40.3475 36.9282 40.5976 36.7927 40.8137 36.6136L49.3944 29.6137C49.6361 29.4166 49.8305 29.1699 49.964 28.8911C50.0974 28.6123 50.1666 28.3081 50.1666 28.0002C50.1666 27.6923 50.0974 27.3882 49.964 27.1093C49.8305 26.8305 49.6361 26.5838 49.3944 26.3867ZM34.4533 10.6265C34.1885 10.5322 33.9073 10.4899 33.6258 10.502C33.3443 10.5142 33.068 10.5805 32.8127 10.6971C32.5574 10.8138 32.3281 10.9786 32.1378 11.1821C31.9476 11.3855 31.8001 11.6237 31.7039 11.8829L20.263 42.6825C20.0691 43.2058 20.0953 43.7831 20.336 44.2875C20.5767 44.7918 21.0121 45.182 21.5465 45.3722C21.7812 45.4571 22.0293 45.5003 22.2795 45.5C22.7199 45.5001 23.1497 45.3674 23.5104 45.1201C23.8712 44.8728 24.1454 44.5227 24.2959 44.1175L35.7368 13.3179C35.8331 13.0587 35.8763 12.7834 35.8639 12.5079C35.8515 12.2323 35.7838 11.9618 35.6646 11.7119C35.5454 11.462 35.3771 11.2375 35.1693 11.0512C34.9614 10.865 34.7181 10.7206 34.4533 10.6265Z" fill="#C1C1C1"/>
</svg>
